<?xml version="1.0" encoding="utf-8"?>
<!-- Generator: Adobe Illustrator 18.0.0, SVG Export Plug-In . SVG Version: 6.00 Build 0)  -->
<!DOCTYPE svg PUBLIC "-//W3C//DTD SVG 1.1//EN" "http://www.w3.org/Graphics/SVG/1.1/DTD/svg11.dtd">
<svg version="1.1" id="Layer_1" xmlns="http://www.w3.org/2000/svg" xmlns:xlink="http://www.w3.org/1999/xlink" x="0px" y="0px"
	 viewBox="0 0 1700 1400" enable-background="new 0 0 1700 1400" xml:space="preserve">
<g>
	<rect fill="#E7F7C9" width="1700" height="1400"/>
	<circle fill="#FEFEDE" cx="348.9" cy="508.7" r="255.9"/>
	<g>
		<path fill="#FEFEDE" d="M1208.4,330.4l29.6-17.2l43.5,52.5l28.5-45l36,18.7l16.5-26.2l89.7,34.5l-10.2-34.5l48.7,8.9
			c-49.9-30.8-99.6-64.2-149.5-103.1h-89.3c-39.1,37.9-79.2,75.1-120.8,110.5l51.4-16.2L1208.4,330.4z"/>
		<path fill="#C5ECB3" d="M1490.6,322l-48.7-8.9l10.2,34.5l-89.7-34.5l-16.5,26.2l-36-18.7l-28.5,45l-43.5-52.5l-29.6,17.2
			l-25.9-17.2l-51.4,16.2c-79.1,67.3-163.5,128.1-255.8,174.9C561,663.8,197.2,703.4,95,741.8l-2,199.9h1607V443.3
			C1629,402.3,1559.6,364.6,1490.6,322z"/>
	</g>
	<polygon fill="#95D899" points="433.9,520.8 412.3,520.8 412.3,435.9 403.6,435.9 403.6,419.7 418.7,419.7 418.7,411.1 
		412.8,411.1 412.8,402.4 418.7,402.4 418.7,392.7 412.8,392.7 412.8,385.1 406.9,385.1 406.9,336.5 397.7,336.5 397.7,290.2 
		400.6,290.2 400.6,279 397.7,279 397.7,267.6 400.6,267.6 400.6,230.8 397.7,230.8 397.7,222.6 400.6,222.6 400.6,211.4 
		397.7,211.4 397.7,206.5 400.6,206.5 400.6,195.4 397.7,195.4 397.7,188.2 400.6,188.2 400.6,182 397.7,182 397.7,173.2 
		402.1,173.2 402.1,167.1 397.7,167.1 397.7,157.4 402.1,157.4 402.1,148.1 397.7,148.1 397.7,137.1 405.8,137.1 405.8,130.6 
		397.7,130.6 391.2,130.6 384.7,130.6 376.6,130.6 376.6,137.1 384.7,137.1 384.7,148.1 380.3,148.1 380.3,157.4 384.7,157.4 
		384.7,167.1 380.3,167.1 380.3,173.2 384.7,173.2 384.7,182 381.8,182 381.8,188.2 384.7,188.2 384.7,195.4 381.8,195.4 
		381.8,206.5 384.7,206.5 384.7,211.4 381.8,211.4 381.8,222.6 384.7,222.6 384.7,230.8 381.8,230.8 381.8,267.6 384.7,267.6 
		384.7,279 381.8,279 381.8,290.2 384.7,290.2 384.7,336.5 375.5,336.5 375.5,385.1 369.6,385.1 369.6,392.7 363.6,392.7 
		363.6,402.4 369.6,402.4 369.6,411.1 363.6,411.1 363.6,419.7 378.8,419.7 378.8,435.9 370.1,435.9 370.1,520.8 348.5,520.8 
		348.5,550.5 364.7,582.9 348.5,1046.5 391.2,1046.5 433.9,1046.5 417.7,582.9 433.9,550.5 	"/>
	<g>
		<rect x="21.3" y="611.1" fill="#66C192" width="100" height="665"/>
		<rect x="141.3" y="683.1" fill="#66C192" width="132" height="593"/>
		<rect x="303.3" y="611.1" fill="#66C192" width="84" height="665"/>
		<polygon fill="#66C192" points="1311.1,564.3 1197.1,564.3 1197.1,892.9 1108.6,892.9 1108.6,625.8 970.6,625.8 970.6,892.9 
			950.1,892.9 950.1,940.9 927.1,940.9 927.1,701.5 810.1,701.5 810.1,940.9 783.9,940.9 783.9,649.1 667.9,649.1 667.9,940.9 
			643.9,940.9 643.9,617.8 549.3,617.8 549.3,871 527.3,871 527.3,743.1 527.3,722.5 484.6,722.5 484.6,711.8 469.3,711.8 
			469.3,686.5 449.9,686.5 449.9,711.8 444.6,711.8 444.6,722.5 439.3,722.5 430.6,743.1 430.6,1276.1 527.3,1276.1 527.3,1273.1 
			549.3,1273.1 549.3,1276.1 643.9,1276.1 643.9,1273.1 667.9,1273.1 667.9,1276.1 783.9,1276.1 783.9,1273.1 810.1,1273.1 
			810.1,1276.1 927.1,1276.1 927.1,1273.1 950.1,1273.1 950.1,1276.9 1382.4,1276.9 1382.4,1276.1 1423.6,1276.1 1423.6,720.8 
			1311.1,720.8 		"/>
		<rect x="1452.1" y="649.1" fill="#66C192" width="112.5" height="627"/>
		<rect x="1590.1" y="570.3" fill="#66C192" width="108" height="705.9"/>
	</g>
	<g>
		<polygon fill="#20A783" points="1626,903 1626,684.8 1438.9,684.8 1438.9,903 1395.9,903 1395.9,1197 1669,1197 1669,903 		"/>
		<path fill="#20A783" d="M1356.4,844.2l-17.8-135c-3-22.5-21.6-39.1-43.2-39.1s-40.3,16.6-43.2,39.1l-17.8,135
			c-5.3,40.2-9.1,82.9-11.3,128.4l-14.7,303.4h174l-14.7-303.4C1365.5,927.2,1361.7,884.4,1356.4,844.2z"/>
		<polygon fill="#20A783" points="395.2,794.5 225.7,794.5 225.7,821.5 202.5,821.5 202.5,667 0,667 0,1169.5 175.5,1169.5 
			202.5,1169.5 445.5,1169.5 445.5,821.5 395.2,821.5 		"/>
		<polygon fill="#20A783" points="826.5,983.5 561,983.5 561,1169.5 778.5,1169.5 826.5,1169.5 924,1169.5 924,995.5 826.5,995.5 		
			"/>
		<rect x="990" y="851.5" fill="#20A783" width="166.5" height="318"/>
	</g>
	<g>
		<polygon fill="#26776F" points="1399,1185 1291,1229 1007,1227.8 787,1119 438.2,1119 378.3,1100.3 158.3,1100.3 158.3,1132.3 
			143.5,1132.3 143.5,790.5 134,840 129,840 129,880 120,880 120,919 107,919 107,959 93,959 93,993 69,993 69,1120 0,1173 0,1400 
			1700,1400 1700,1185 		"/>
		<rect x="0" y="1016.6" fill="#26776F" width="42.5" height="383.4"/>
		<polygon fill="#26776F" points="504.1,1012 504.1,968.4 509.6,968.4 509.6,945.1 498.7,945.1 498.7,926.1 490.2,926.1 
			490.2,919.4 482,919.4 482,912.8 487.3,912.8 487.3,906.2 484.3,906.2 484.3,899.5 481.3,899.5 481.3,892.9 479.9,892.9 
			479.9,886.2 477.4,886.2 477.4,840 472,840 472,886.2 469.6,886.2 469.6,892.9 468.2,892.9 468.2,899.5 465.1,899.5 465.1,906.2 
			462.1,906.2 462.1,912.8 467.5,912.8 467.5,919.4 459.3,919.4 459.3,926.1 450.7,926.1 450.7,945.1 439.8,945.1 439.8,968.4 
			445.3,968.4 445.3,1012 429.4,1012 429.4,1169 520,1169 520,1012 		"/>
		<path fill="#26776F" d="M339.2,1018.1c19.1,0,38.1-2.9,56.3-8.5l20.8-6.5v-8.3h-19.6c-15.2,0-30.3-0.8-45.4-2.4l-5.3-0.6v-10h9.7
			v-8.7h-67h-67v8.7h9.7v10l-5.3,0.6c-15.1,1.6-30.3,2.4-45.4,2.4H161v8.3l20.8,6.5c18.2,5.7,37.2,8.5,56.3,8.5h1.8v11.1h-8.6v14.3
			l-5.3,0.6c-15.1,1.6-30.3,2.4-45.4,2.4H161v8.3l20.8,6.5c14,4.3,28.4,7,43,8.1v36.7h63.8h63.8v-36.7c14.6-1,29-3.7,43-8.1
			l20.8-6.5v-8.3h-19.6c-15.2,0-30.3-0.8-45.4-2.4l-5.3-0.6v-14.3h-8.6v-11.1H339.2z"/>
		<polygon fill="#26776F" points="664,1034 664,954.3 660.4,954.3 660.4,916.3 660.4,906.6 660.4,891.5 657.6,891.5 657.6,827.2 
			628.3,827.2 628.3,891.5 625.5,891.5 625.5,906.6 620.8,906.6 620.8,916.3 604.8,916.3 588.8,916.3 588.8,906.6 584,906.6 
			584,891.5 581.2,891.5 581.2,827.2 551.9,827.2 551.9,891.5 549.1,891.5 549.1,906.6 549.1,916.3 549.1,954.3 545.5,954.3 
			545.5,1034 536.8,1034 536.8,1206 604.8,1206 672.8,1206 672.8,1034 		"/>
		<polygon fill="#26776F" points="1355.9,1172.7 1355.9,1159.4 1388.9,1132.5 1355.9,1132.5 1346.8,1116.4 1371,1099.9 
			1341.5,1099.9 1341.5,1088.9 1361.3,1069.1 1335.6,1069.1 1335.6,1055.6 1282.9,1055.6 1230.2,1055.6 1230.2,1069.1 
			1204.5,1069.1 1224.3,1088.9 1224.3,1099.9 1194.8,1099.9 1219,1116.4 1209.9,1132.5 1177,1132.5 1209.9,1159.4 1209.9,1172.7 
			1170,1172.7 1213,1198.6 1213,1232 1282.9,1232 1352.8,1232 1352.8,1198.6 1395.9,1172.7 		"/>
		<path fill="#26776F" d="M1154,1095.5v-123h-15.4l-2.8-52.5c-1.3,0-0.7,0-2,0l-2.8,52.5h-49.6v111h-21l-13.3,33.7v40.7h-8v-120
			h-17.3v-41.3h-47.3v26.7l-17.7,11.3v89l-17-17v-36h-7.7v-86h-9.7v-9.7h-11.3v-8.5H900l-7.8-7.8h-22.3v12h-20.7v15.3h-17.3v268.2
			H1170v-158.6H1154z"/>
		<polygon fill="#26776F" points="777.2,917.1 777.2,882.9 773.2,882.9 773.2,917.1 768,917.1 768,951.2 697,983.2 697,1004.9 
			686.8,1004.9 686.8,1150.2 782.3,1150.2 782.3,1013.2 782.3,1004.9 782.3,951.2 782.3,917.1 		"/>
		<polygon fill="#26776F" points="1529.3,1020.2 1529.3,882.9 1518.5,882.9 1518.5,820.3 1507,820.3 1507,767.7 1495.8,767.7 
			1495.8,713 1488.2,713 1488.2,665.7 1480.4,665.7 1480.4,607.7 1472.6,607.7 1472.6,665.7 1464.8,665.7 1464.8,713 1457.2,713 
			1457.2,767.7 1446,767.7 1446,820.3 1434.5,820.3 1434.5,882.9 1423.7,882.9 1423.7,1020.2 1409.5,1020.2 1409.5,1280.2 
			1543.5,1280.2 1543.5,1020.2 		"/>
		<polygon fill="#26776F" points="1691.2,915.7 1691.2,889.7 1679.7,889.7 1679.7,881 1660.1,881 1660.1,889.7 1648.6,889.7 
			1648.6,915.7 1570.9,915.7 1570.9,1192.7 1700,1192.7 1700,915.7 		"/>
	</g>
	<g>
		<linearGradient id="SVGID_2_" gradientUnits="userSpaceOnUse" x1="1016.9705" y1="215.964" x2="1016.9705" y2="262.8647">
			<stop  offset="1.315370e-03" style="stop-color:#FEFEDE"/>
			<stop  offset="1" style="stop-color:#FEFEDE;stop-opacity:0"/>
		</linearGradient>
		<path fill="url(#SVGID_2_)" d="M953.5,241.5c7.5,0,14.4,2.3,20.2,6.1c9.8-18.8,29.5-31.7,52.2-31.7c24.5,0,45.5,15,54.3,36.2
			c3.3-1.5,7-2.4,10.9-2.4c9.6,0,18,5.3,22.4,13.1H920.4C926.1,250.3,938.8,241.5,953.5,241.5z"/>
		<linearGradient id="SVGID_3_" gradientUnits="userSpaceOnUse" x1="1162.4301" y1="409.3082" x2="1162.4301" y2="479.0929">
			<stop  offset="1.315370e-03" style="stop-color:#FEFEDE"/>
			<stop  offset="1" style="stop-color:#FEFEDE;stop-opacity:0"/>
		</linearGradient>
		<path fill="url(#SVGID_3_)" d="M1081.5,443.1c16.4,0,31.5,5.4,43.6,14.6c17.5-29,49.3-48.4,85.6-48.4c44.7,0,82.5,29.3,95.3,69.8
			h-287.1C1031.4,457.6,1054.8,443.1,1081.5,443.1z"/>
		
			<linearGradient id="SVGID_4_" gradientUnits="userSpaceOnUse" x1="1218.2115" y1="181.0717" x2="1218.2115" y2="250.8563" gradientTransform="matrix(-1 0 0 1 1379.1664 0)">
			<stop  offset="1.315370e-03" style="stop-color:#FEFEDE"/>
			<stop  offset="1" style="stop-color:#FEFEDE;stop-opacity:0"/>
		</linearGradient>
		<path fill="url(#SVGID_4_)" d="M241.9,214.9c-16.4,0-31.5,5.4-43.6,14.6c-17.5-29-49.3-48.4-85.6-48.4
			c-44.7,0-82.5,29.3-95.3,69.8h287.1C292,229.3,268.6,214.9,241.9,214.9z"/>
		<linearGradient id="SVGID_5_" gradientUnits="userSpaceOnUse" x1="686.761" y1="229.3124" x2="686.761" y2="323.0303">
			<stop  offset="1.315370e-03" style="stop-color:#FEFEDE"/>
			<stop  offset="1" style="stop-color:#FEFEDE;stop-opacity:0"/>
		</linearGradient>
		<path fill="url(#SVGID_5_)" d="M795.5,274.7c-22,0-42.2,7.3-58.5,19.6c-23.5-38.9-66.2-64.9-115-64.9c-60,0-110.8,39.4-128,93.7
			h385.6C862.7,294.1,831.4,274.7,795.5,274.7z"/>
		<linearGradient id="SVGID_6_" gradientUnits="userSpaceOnUse" x1="734.5471" y1="409.3082" x2="734.5471" y2="515.2504">
			<stop  offset="1.315370e-03" style="stop-color:#FEFEDE"/>
			<stop  offset="1" style="stop-color:#FEFEDE;stop-opacity:0"/>
		</linearGradient>
		<path fill="url(#SVGID_6_)" d="M885.6,464.6c-15.7,0-30.6,3.9-43.6,10.8c-23-39.5-65.8-66.1-114.8-66.1
			c-41.8,0-79.1,19.4-103.4,49.6c-9.3-2.7-19.1-4.2-29.2-4.2c-41.8,0-77.7,24.9-93.9,60.6h467.9C953,485.2,921.7,464.6,885.6,464.6z
			"/>
		<linearGradient id="SVGID_7_" gradientUnits="userSpaceOnUse" x1="1508.3494" y1="247.4936" x2="1508.3494" y2="304.8491">
			<stop  offset="1.315370e-03" style="stop-color:#FEFEDE"/>
			<stop  offset="1" style="stop-color:#FEFEDE;stop-opacity:0"/>
		</linearGradient>
	</g>
</g>
</svg>
